<?xml version="1.0" encoding="UTF-8"?>
<svg id="Capa_2" data-name="Capa 2" xmlns="http://www.w3.org/2000/svg" viewBox="0 0 615.3 142.88">
  <defs>
    <style>
      .cls-1 {
        fill: #fff;
      }
    </style>
  </defs>
  <g id="Capa_1-2" data-name="Capa 1">
    <g>
      <path class="cls-1" d="m386.49,35.07c-6.27-10.82-14.85-19.26-25.73-25.33-10.87-6.06-22.84-9.09-35.9-9.09s-25.02,3.03-35.9,9.09c-10.88,6.07-19.52,14.51-25.92,25.33-6.4,10.8-9.59,23.01-9.59,36.59,0,2.43.11,4.81.31,7.14h-14.51V1.49h-31.39v103.89h53.54c.51,1.01,1.06,2,1.64,2.98,6.4,10.87,15.04,19.36,25.92,25.42,10.88,6.07,22.84,9.1,35.9,9.1s25-3.03,35.81-9.1c10.81-6.06,19.38-14.55,25.71-25.42,6.34-10.88,9.49-23.12,9.49-36.7s-3.12-25.79-9.38-36.59Zm-35.02,65.87c-6.67,7.38-15.53,11.08-26.61,11.08s-20.14-3.66-26.81-10.97c-6.65-7.33-9.98-17.12-9.98-29.39s3.33-22.22,9.98-29.48c6.67-7.25,15.6-10.88,26.81-10.88s19.94,3.66,26.61,10.99c6.66,7.32,9.98,17.1,9.98,29.37s-3.32,21.89-9.98,29.28Zm-95.83,17.26c-.4-.69-.8-1.36-1.16-2.06h-56.95V.65h-31.57v142.23h111.17c-8.59-6.68-15.76-14.92-21.49-24.68Zm-134.32-21.36v46.04h34.65V.65l-34.65,96.19ZM115.27.65c-4.58,0-8.66,2.94-10.09,7.3l-33.05,100.08L39.28,7.97c-1.43-4.37-5.51-7.32-10.1-7.32H0l50.44,142.23h43.37L144.25.65h-28.98Zm345.98,0h-40.11l-.63,1.72v-.03l-50.54,140.54h23.17c7.65,0,14.45-4.87,16.91-12.12l4.41-13.01h53.08l4.4,13.01c2.46,7.25,9.26,12.12,16.92,12.12h23.86L461.25.65Zm-37.69,90.36l17.43-52.06,17.64,52.06h-35.07Z"/>
      <path class="cls-1" d="m490.73,142.88V0h53.33c15.7,0,28.81,3.19,39.34,9.56,10.53,6.37,18.48,14.96,23.85,25.76,5.36,10.8,8.05,22.77,8.05,35.92,0,14.49-2.95,27.1-8.85,37.83-5.91,10.73-14.19,19.05-24.85,24.95-10.67,5.91-23.18,8.85-37.53,8.85h-53.33Zm90.96-71.64c0-8.32-1.48-15.66-4.43-22.04-2.95-6.37-7.24-11.34-12.88-14.89-5.63-3.55-12.41-5.33-20.33-5.33h-20.33v84.92h20.33c8.05,0,14.86-1.84,20.43-5.53,5.57-3.69,9.83-8.79,12.78-15.29,2.95-6.51,4.43-13.78,4.43-21.83Z"/>
    </g>
  </g>
</svg>