<?xml version="1.0" encoding="UTF-8"?>
<svg id="Capa_2" data-name="Capa 2" xmlns="http://www.w3.org/2000/svg" viewBox="0 0 615.3 142.88">
  <defs>
    <style>
      .cls-1 {
        stroke-width: 0px;
      }
    </style>
  </defs>
  <g id="Capa_1-2" data-name="Capa 1">
    <g>
      <path class="cls-1" d="m115.27.65c-4.58,0-8.66,2.94-10.09,7.3l-33.05,100.08L39.28,7.97c-1.43-4.37-5.51-7.32-10.1-7.32H0l50.44,142.23h43.37L144.25.65h-28.98Zm6.05,96.19v46.04h34.65V.65l-34.65,96.19Zm134.32,21.36c-.4-.69-.8-1.36-1.16-2.06h-56.95V.65h-31.57v142.23h111.17c-8.59-6.68-15.76-14.92-21.49-24.68Z"/>
      <path class="cls-1" d="m607.25,35.31c-5.37-10.79-13.32-19.38-23.85-25.76-10.53-6.37-23.65-9.55-39.34-9.55h-53.33v82.11L461.25.65h-40.11l-.63,1.72v-.03l-24.65,68.55c-.11-13.27-3.23-25.23-9.37-35.82-6.27-10.82-14.85-19.26-25.73-25.33-10.87-6.06-22.84-9.09-35.9-9.09s-25.02,3.03-35.9,9.09c-10.88,6.07-19.52,14.51-25.92,25.33-6.4,10.8-9.59,23.01-9.59,36.59,0,2.43.11,4.81.31,7.14h-14.51V1.49h-31.39v103.89h53.54c.51,1.01,1.06,2,1.64,2.98,6.4,10.87,15.04,19.36,25.92,25.42,10.88,6.07,22.84,9.1,35.9,9.1s25-3.03,35.81-9.1c6.79-3.81,12.69-8.57,17.71-14.28l-8.41,23.38h23.17c7.65,0,14.45-4.87,16.91-12.12l4.41-13.01h53.08l4.4,13.01c2.46,7.25,9.26,12.12,16.92,12.12h55.2c14.35,0,26.86-2.95,37.53-8.86,10.66-5.9,18.95-14.22,24.85-24.95,5.9-10.73,8.86-23.35,8.86-37.84,0-13.14-2.69-25.12-8.05-35.92Zm-255.78,65.63c-6.67,7.38-15.53,11.08-26.61,11.08s-20.14-3.66-26.81-10.97c-6.65-7.33-9.98-17.12-9.98-29.39s3.33-22.22,9.98-29.48c6.67-7.25,15.6-10.88,26.81-10.88s19.94,3.66,26.61,10.99c6.66,7.32,9.98,17.1,9.98,29.37s-3.32,21.89-9.98,29.28Zm72.09-9.93l17.43-52.06,17.64,52.06h-35.07Zm153.7,2.06c-2.95,6.51-7.21,11.61-12.78,15.29-5.57,3.7-12.37,5.54-20.42,5.54h-20.33V28.97h20.33c7.91,0,14.69,1.78,20.32,5.34,5.64,3.55,9.93,8.52,12.88,14.89,2.95,6.37,4.43,13.72,4.43,22.03s-1.48,15.33-4.43,21.84Z"/>
    </g>
  </g>
</svg>